<svg xmlns="http://www.w3.org/2000/svg" viewBox="0 0 1024 1024">
  <path d="M704.052825 157.736635 112.197079 157.736635c-40.293587 0-73.069714 32.78019-73.069714 73.069714l0 705.897651c0 40.289524 32.78019 73.069714 73.069714 73.069714l591.855746 0c40.289524 0 73.069714-32.78019 73.069714-73.069714L777.12254 230.810413C777.12254 190.516825 744.342349 157.736635 704.052825 157.736635z" fill="#eeb173"/>
  <path d="M911.802921 14.222222 341.800635 14.222222c-40.289524 0-73.069714 32.78019-73.069714 73.069714l0 10.398476 435.321905 0c73.402921 0 133.12 59.717079 133.12 133.12l0 610.482794 74.634159 0c40.289524 0 73.069714-32.78019 73.069714-73.069714L984.876698 87.291937C984.872635 47.002413 952.092444 14.222222 911.802921 14.222222z" fill="#eeb173"/>
</svg>
